<svg width="54" height="54" viewBox="0 0 54 54" fill="none" xmlns="http://www.w3.org/2000/svg">
<rect width="54" height="54" rx="10" fill="#838690"/>
<path d="M19 21C19 20.7348 19.1054 20.4804 19.2929 20.2929C19.4804 20.1054 19.7348 20 20 20H34C34.2652 20 34.5196 20.1054 34.7071 20.2929C34.8946 20.4804 35 20.7348 35 21C35 21.2652 34.8946 21.5196 34.7071 21.7071C34.5196 21.8946 34.2652 22 34 22H20C19.7348 22 19.4804 21.8946 19.2929 21.7071C19.1054 21.5196 19 21.2652 19 21ZM19 33C19 32.7348 19.1054 32.4804 19.2929 32.2929C19.4804 32.1054 19.7348 32 20 32H34C34.2652 32 34.5196 32.1054 34.7071 32.2929C34.8946 32.4804 35 32.7348 35 33C35 33.2652 34.8946 33.5196 34.7071 33.7071C34.5196 33.8946 34.2652 34 34 34H20C19.7348 34 19.4804 33.8946 19.2929 33.7071C19.1054 33.5196 19 33.2652 19 33ZM20 26C19.7348 26 19.4804 26.1054 19.2929 26.2929C19.1054 26.4804 19 26.7348 19 27C19 27.2652 19.1054 27.5196 19.2929 27.7071C19.4804 27.8946 19.7348 28 20 28H28C28.2652 28 28.5196 27.8946 28.7071 27.7071C28.8946 27.5196 29 27.2652 29 27C29 26.7348 28.8946 26.4804 28.7071 26.2929C28.5196 26.1054 28.2652 26 28 26H20Z" fill="white"/>
</svg>
