<svg width="45" height="45" viewBox="0 0 45 45" fill="none" xmlns="http://www.w3.org/2000/svg">
<circle cx="22.5" cy="22.5" r="22.5" fill="#ECECEC"/>
<path d="M27.4488 17.5514H17.5512C16.6141 17.5526 15.7156 17.9253 15.053 18.588C14.3903 19.2507 14.0175 20.1491 14.0164 21.0863L14.0164 27.449C14.0175 28.3861 14.3903 29.2846 15.053 29.9472C15.7156 30.6099 16.6141 30.9827 17.5512 30.9838H27.4488C28.3859 30.9827 29.2844 30.6099 29.947 29.9472C30.6097 29.2846 30.9825 28.3861 30.9836 27.449V21.0863C30.9825 20.1491 30.6097 19.2507 29.947 18.588C29.2844 17.9253 28.3859 17.5526 27.4488 17.5514ZM22.5 28.1559C21.6611 28.1559 20.8409 27.9072 20.1434 27.4411C19.4458 26.975 18.9021 26.3125 18.5811 25.5374C18.26 24.7623 18.176 23.9094 18.3397 23.0866C18.5034 22.2638 18.9074 21.508 19.5006 20.9147C20.0938 20.3215 20.8496 19.9175 21.6725 19.7538C22.4953 19.5902 23.3482 19.6742 24.1233 19.9952C24.8984 20.3163 25.5608 20.86 26.0269 21.5575C26.493 22.2551 26.7418 23.0752 26.7418 23.9141C26.7407 25.0388 26.2934 26.1171 25.4982 26.9123C24.7029 27.7076 23.6247 28.1548 22.5 28.1559Z" fill="#B5B7BD"/>
<path d="M22.5 26.742C24.0618 26.742 25.3279 25.4759 25.3279 23.9141C25.3279 22.3524 24.0618 21.0863 22.5 21.0863C20.9382 21.0863 19.6721 22.3524 19.6721 23.9141C19.6721 25.4759 20.9382 26.742 22.5 26.742Z" fill="#B5B7BD"/>
<path d="M26.5434 16.1375L25.5444 14.8423C25.3455 14.5863 25.0908 14.3789 24.7998 14.2358C24.5087 14.0927 24.189 14.0178 23.8647 14.0166H21.133C20.8087 14.0178 20.4889 14.0927 20.1979 14.2358C19.9069 14.3789 19.6522 14.5863 19.4532 14.8423L18.4543 16.1375H26.5434Z" fill="#B5B7BD"/>
</svg>
