<svg width="21" height="21" viewBox="0 0 21 21" fill="none" xmlns="http://www.w3.org/2000/svg">
<path d="M10.5 21C11.8791 21.0018 13.245 20.731 14.5192 20.2032C15.7933 19.6754 16.9506 18.901 17.9245 17.9245C18.901 16.9506 19.6754 15.7933 20.2032 14.5192C20.731 13.245 21.0018 11.8791 21 10.5C21.0018 9.12087 20.731 7.75498 20.2032 6.48083C19.6754 5.20668 18.901 4.04939 17.9245 3.07546C16.9506 2.09897 15.7933 1.32458 14.5192 0.796793C13.245 0.269004 11.8791 -0.00177814 10.5 8.78668e-06C9.12087 -0.00174938 7.75498 0.269046 6.48083 0.796833C5.20668 1.32462 4.04939 2.09899 3.07546 3.07546C2.09899 4.04939 1.32462 5.20668 0.796833 6.48083C0.269046 7.75498 -0.00174938 9.12087 8.78668e-06 10.5C-0.00177814 11.8791 0.269004 13.245 0.796793 14.5192C1.32458 15.7933 2.09897 16.9506 3.07546 17.9245C4.04939 18.901 5.20668 19.6754 6.48083 20.2032C7.75498 20.731 9.12087 21.0018 10.5 21Z" fill="#FC372A"/>
<path fill-rule="evenodd" clip-rule="evenodd" d="M10.6193 16.4659C10.9041 16.4659 11.1773 16.3528 11.3787 16.1514C11.58 15.95 11.6932 15.6769 11.6932 15.392C11.6932 15.1072 11.58 14.8341 11.3787 14.6327C11.1773 14.4313 10.9041 14.3182 10.6193 14.3182C10.3345 14.3182 10.0614 14.4313 9.85998 14.6327C9.65859 14.8341 9.54545 15.1072 9.54545 15.392C9.54545 15.6769 9.65859 15.95 9.85998 16.1514C10.0614 16.3528 10.3345 16.4659 10.6193 16.4659Z" fill="white"/>
<path fill-rule="evenodd" clip-rule="evenodd" d="M10.6193 4.77273C11.1465 4.77273 11.5739 5.20009 11.5739 5.72727V12.6C11.5739 13.1272 11.1465 13.5546 10.6193 13.5546C10.0921 13.5546 9.66477 13.1272 9.66477 12.6V5.72727C9.66477 5.20009 10.0921 4.77273 10.6193 4.77273Z" fill="white"/>
</svg>
