<svg width="42" height="43" viewBox="0 0 42 43" fill="none" xmlns="http://www.w3.org/2000/svg">
<path d="M33.25 8.95834H8.75C6.43021 8.96119 4.20623 9.90592 2.56588 11.5853C0.925543 13.2647 0.00277875 15.5417 0 17.9167L0 34.0417C0.00277875 36.4167 0.925543 38.6936 2.56588 40.373C4.20623 42.0524 6.43021 42.9972 8.75 43H33.25C35.5698 42.9972 37.7938 42.0524 39.4341 40.373C41.0745 38.6936 41.9972 36.4167 42 34.0417V17.9167C41.9972 15.5417 41.0745 13.2647 39.4341 11.5853C37.7938 9.90592 35.5698 8.96119 33.25 8.95834ZM21 35.8333C18.9233 35.8333 16.8932 35.2029 15.1665 34.0216C13.4398 32.8404 12.094 31.1615 11.2993 29.1972C10.5045 27.2329 10.2966 25.0714 10.7018 22.9861C11.1069 20.9008 12.1069 18.9854 13.5754 17.4819C15.0438 15.9785 16.9148 14.9547 18.9516 14.5399C20.9884 14.1251 23.0996 14.338 25.0182 15.1516C26.9368 15.9653 28.5767 17.3431 29.7304 19.111C30.8842 20.8788 31.5 22.9572 31.5 25.0833C31.4972 27.9335 30.3901 30.6662 28.4216 32.6816C26.453 34.697 23.7839 35.8305 21 35.8333Z" fill="#B5B7BD"/>
<path d="M21 32.25C24.866 32.25 28 29.0414 28 25.0833C28 21.1253 24.866 17.9167 21 17.9167C17.134 17.9167 14 21.1253 14 25.0833C14 29.0414 17.134 32.25 21 32.25Z" fill="#B5B7BD"/>
<path d="M31.0089 5.37501L28.5361 2.09267C28.0435 1.44374 27.4132 0.918081 26.6928 0.555515C25.9724 0.192948 25.1808 0.00297962 24.3781 0H17.6161C16.8134 0.00297962 16.0218 0.192948 15.3014 0.555515C14.581 0.918081 13.9507 1.44374 13.4581 2.09267L10.9854 5.37501H31.0089Z" fill="#B5B7BD"/>
</svg>
