<svg width="33" height="32" viewBox="0 0 33 32" fill="none" xmlns="http://www.w3.org/2000/svg">
<path d="M26.125 6.66667H6.875C5.05231 6.66879 3.30489 7.37185 2.01605 8.62163C0.727213 9.87142 0.0021833 11.5659 0 13.3333L0 25.3333C0.0021833 27.1008 0.727213 28.7953 2.01605 30.045C3.30489 31.2948 5.05231 31.9979 6.875 32H26.125C27.9477 31.9979 29.6951 31.2948 30.9839 30.045C32.2728 28.7953 32.9978 27.1008 33 25.3333V13.3333C32.9978 11.5659 32.2728 9.87142 30.9839 8.62163C29.6951 7.37185 27.9477 6.66879 26.125 6.66667ZM16.5 26.6667C14.8683 26.6667 13.2733 26.1975 11.9165 25.3184C10.5598 24.4394 9.50242 23.1899 8.87799 21.7281C8.25357 20.2663 8.09019 18.6578 8.40852 17.1059C8.72685 15.5541 9.51259 14.1286 10.6664 13.0098C11.8202 11.891 13.2902 11.1291 14.8905 10.8204C16.4908 10.5117 18.1496 10.6701 19.6571 11.2756C21.1646 11.8811 22.4531 12.9065 23.3596 14.2221C24.2661 15.5377 24.75 17.0844 24.75 18.6667C24.7478 20.7878 23.8779 22.8214 22.3312 24.3212C20.7845 25.821 18.6874 26.6646 16.5 26.6667Z" fill="#B5B7BD"/>
<path d="M16.5 24C19.5375 24 22 21.6122 22 18.6667C22 15.7212 19.5375 13.3333 16.5 13.3333C13.4624 13.3333 11 15.7212 11 18.6667C11 21.6122 13.4624 24 16.5 24Z" fill="#B5B7BD"/>
<path d="M24.3641 4L22.4212 1.55734C22.0342 1.07441 21.5389 0.683223 20.9729 0.413406C20.4069 0.143589 19.7849 0.00221739 19.1542 0H13.8412C13.2105 0.00221739 12.5886 0.143589 12.0226 0.413406C11.4565 0.683223 10.9612 1.07441 10.5742 1.55734L8.63135 4H24.3641Z" fill="#B5B7BD"/>
</svg>
