<svg width="59" height="58" viewBox="0 0 59 58" fill="none" xmlns="http://www.w3.org/2000/svg">
<path d="M46.7083 12.0833H12.2917C9.03291 12.0872 5.90875 13.3615 3.60446 15.6267C1.30017 17.8919 0.00390348 20.9632 0 24.1667L0 45.9167C0.00390348 49.1202 1.30017 52.1914 3.60446 54.4566C5.90875 56.7219 9.03291 57.9962 12.2917 58H46.7083C49.9671 57.9962 53.0913 56.7219 55.3955 54.4566C57.6998 52.1914 58.9961 49.1202 59 45.9167V24.1667C58.9961 20.9632 57.6998 17.8919 55.3955 15.6267C53.0913 13.3615 49.9671 12.0872 46.7083 12.0833ZM29.5 48.3333C26.5827 48.3333 23.731 47.4829 21.3053 45.8896C18.8797 44.2964 16.9892 42.0318 15.8728 39.3822C14.7564 36.7327 14.4643 33.8173 15.0334 31.0045C15.6025 28.1918 17.0074 25.6082 19.0702 23.5803C21.133 21.5524 23.7612 20.1714 26.6224 19.612C29.4836 19.0525 32.4494 19.3396 35.1446 20.4371C37.8398 21.5346 40.1434 23.3931 41.7642 25.7776C43.3849 28.1621 44.25 30.9655 44.25 33.8333C44.2461 37.6778 42.6908 41.3637 39.9255 44.0821C37.1602 46.8006 33.4107 48.3295 29.5 48.3333Z" fill="#B5B7BD"/>
<path d="M29.5 43.5C34.9308 43.5 39.3333 39.1721 39.3333 33.8334C39.3333 28.4946 34.9308 24.1667 29.5 24.1667C24.0692 24.1667 19.6667 28.4946 19.6667 33.8334C19.6667 39.1721 24.0692 43.5 29.5 43.5Z" fill="#B5B7BD"/>
<path d="M43.5601 7.25001L40.0864 2.82267C39.3945 1.94737 38.509 1.23834 37.497 0.749299C36.485 0.260255 35.3731 0.00401903 34.2454 0H24.7464C23.6188 0.00401903 22.5069 0.260255 21.4949 0.749299C20.4829 1.23834 19.5974 1.94737 18.9054 2.82267L15.4318 7.25001H43.5601Z" fill="#B5B7BD"/>
</svg>
