<svg width="129" height="172" viewBox="0 0 129 172" fill="none" xmlns="http://www.w3.org/2000/svg">
<path d="M67 163C67 159.134 70.134 156 74 156H117C120.866 156 124 159.134 124 163V172H67V163Z" fill="#E2E2E2"/>
<path d="M5 163C5 159.134 8.13401 156 12 156H55C58.866 156 62 159.134 62 163V172H5V163Z" fill="#E2E2E2"/>
<rect y="31" width="129" height="116" rx="10" fill="#C3EAFF"/>
<rect x="67" y="36" width="57" height="77" rx="7" fill="#858585"/>
<rect x="5" y="36" width="57" height="77" rx="7" fill="#E2E2E2"/>
<rect x="67" y="135" width="25" height="7" fill="#858585"/>
<rect x="67" y="129" width="57" height="3" fill="#B4B4B4"/>
<rect x="67" y="124" width="57" height="3" fill="#B4B4B4"/>
<rect x="67" y="116" width="57" height="6" fill="#858585"/>
<rect x="5" y="135" width="26" height="7" fill="#ECECEC"/>
<rect x="5" y="129" width="57" height="3" fill="#F7F7F7"/>
<rect x="5" y="124" width="57" height="3" fill="#F7F7F7"/>
<rect x="5" y="116" width="57" height="6" fill="#ECECEC"/>
<rect x="5" y="15" width="26" height="7" fill="#ECECEC"/>
<rect x="5" y="9" width="57" height="3" fill="#F7F7F7"/>
<rect x="5" y="4" width="57" height="3" fill="#F7F7F7"/>
<rect x="5" width="57" height="2" fill="#ECECEC"/>
<rect x="67" y="15" width="26" height="7" fill="#ECECEC"/>
<rect x="67" y="9" width="57" height="3" fill="#F7F7F7"/>
<rect x="67" y="4" width="57" height="3" fill="#F7F7F7"/>
<rect x="67" width="57" height="2" fill="#ECECEC"/>
</svg>
