<svg width="149" height="172" viewBox="0 0 149 172" fill="none" xmlns="http://www.w3.org/2000/svg">
<rect x="15" y="15" width="26" height="7" fill="#ECECEC"/>
<rect x="15" y="9" width="57" height="3" fill="#F7F7F7"/>
<rect x="15" y="4" width="57" height="3" fill="#F7F7F7"/>
<rect x="15" width="57" height="2" fill="#ECECEC"/>
<rect x="77" y="15" width="26" height="7" fill="#ECECEC"/>
<rect x="77" y="9" width="57" height="3" fill="#F7F7F7"/>
<rect x="77" y="4" width="57" height="3" fill="#F7F7F7"/>
<rect x="77" width="57" height="2" fill="#ECECEC"/>
<path d="M77 163C77 159.134 80.134 156 84 156H127C130.866 156 134 159.134 134 163V172H77V163Z" fill="#E2E2E2"/>
<path d="M15 163C15 159.134 18.134 156 22 156H65C68.866 156 72 159.134 72 163V172H15V163Z" fill="#E2E2E2"/>
<g filter="url(#filter0_d_1867_8960)">
<rect x="10" y="31" width="129" height="116" rx="10" fill="white"/>
</g>
<rect x="15" y="135" width="25" height="7" fill="#989898"/>
<rect x="15" y="129" width="57" height="3" fill="#B4B4B4"/>
<rect x="15" y="124" width="57" height="3" fill="#B4B4B4"/>
<rect x="15" y="116" width="57" height="6" fill="#989898"/>
<rect x="15" y="36" width="119" height="71" rx="7" fill="#989898"/>
<circle cx="69.8978" cy="111.344" r="0.897833" fill="#ECECEC"/>
<circle cx="72.7709" cy="111.344" r="0.897833" fill="#858585"/>
<circle cx="75.6439" cy="111.344" r="0.897833" fill="#ECECEC"/>
<circle cx="78.518" cy="111.344" r="0.897833" fill="#ECECEC"/>
<rect x="115.062" y="115.833" width="19.3932" height="19.3932" rx="4" fill="#858585"/>
<path d="M123.195 122.297H122.207C121.831 122.297 121.526 122.602 121.526 122.978C121.526 126.172 124.116 128.762 127.31 128.762C127.686 128.762 127.991 128.457 127.991 128.081V127.093C127.991 126.8 127.812 126.535 127.539 126.426L126.593 126.048C126.348 125.95 126.069 125.994 125.866 126.163L125.622 126.367C125.336 126.604 124.917 126.585 124.654 126.323L123.965 125.634C123.703 125.372 123.684 124.952 123.922 124.667L124.125 124.422C124.294 124.219 124.338 123.94 124.24 123.695L123.862 122.749C123.753 122.476 123.489 122.297 123.195 122.297Z" fill="white"/>
<rect x="91" y="115.833" width="19.3932" height="19.3932" rx="4" fill="#F7F7F7"/>
<path d="M100.697 122.297C102.672 122.297 104.288 123.583 104.288 125.17C104.288 126.758 102.672 128.043 100.697 128.043C100.251 128.043 99.8241 127.979 99.4291 127.864C98.3804 128.762 97.1055 128.762 97.1055 128.762C97.9422 127.925 98.0751 127.361 98.0931 127.146C97.4826 126.632 97.1055 125.935 97.1055 125.17C97.1055 123.583 98.7216 122.297 100.697 122.297Z" fill="#858585"/>
<defs>
<filter id="filter0_d_1867_8960" x="0" y="23" width="149" height="136" filterUnits="userSpaceOnUse" color-interpolation-filters="sRGB">
<feFlood flood-opacity="0" result="BackgroundImageFix"/>
<feColorMatrix in="SourceAlpha" type="matrix" values="0 0 0 0 0 0 0 0 0 0 0 0 0 0 0 0 0 0 127 0" result="hardAlpha"/>
<feOffset dy="2"/>
<feGaussianBlur stdDeviation="5"/>
<feComposite in2="hardAlpha" operator="out"/>
<feColorMatrix type="matrix" values="0 0 0 0 0.14902 0 0 0 0 0.14902 0 0 0 0 0.14902 0 0 0 0.15 0"/>
<feBlend mode="normal" in2="BackgroundImageFix" result="effect1_dropShadow_1867_8960"/>
<feBlend mode="normal" in="SourceGraphic" in2="effect1_dropShadow_1867_8960" result="shape"/>
</filter>
</defs>
</svg>
