<svg width="20" height="18" viewBox="0 0 20 18" fill="none" xmlns="http://www.w3.org/2000/svg">
<path d="M6.60966 15.0199L6.35014 14.9444L6.14482 15.1202C4.76043 16.3054 3.22081 16.9025 2.01896 17.2024C1.751 17.2692 1.50069 17.3211 1.27373 17.3613C2.86521 15.4964 3.19517 14.1787 3.24827 13.5415L3.26975 13.2838L3.07186 13.1174C1.46347 11.7644 0.5 9.95664 0.5 8C0.5 3.95519 4.66538 0.5 10 0.5C15.3346 0.5 19.5 3.95519 19.5 8C19.5 12.0448 15.3346 15.5 10 15.5C8.80829 15.5 7.66528 15.327 6.60966 15.0199Z" fill="#B5B7BD" stroke="#B5B7BD"/>
</svg>
