<svg width="18" height="20" viewBox="0 0 18 20" fill="none" xmlns="http://www.w3.org/2000/svg">
<path d="M12.7341 6.38788L11.4291 5.12036L4.90405 11.463C4.64707 11.7129 4.44324 12.0096 4.3042 12.3361C4.16515 12.6626 4.09362 13.0126 4.09368 13.3659C4.09374 13.7193 4.16539 14.0693 4.30454 14.3957C4.4437 14.7222 4.64763 15.0188 4.90469 15.2687C5.16176 15.5185 5.46692 15.7167 5.80275 15.8519C6.13859 15.987 6.49853 16.0566 6.86201 16.0565C7.22549 16.0565 7.5854 15.9868 7.92119 15.8515C8.25698 15.7162 8.56208 15.518 8.81906 15.268L16.6491 7.65665C17.5142 6.8154 18.0001 5.67449 18 4.48491C17.9999 3.29532 17.5137 2.1545 16.6484 1.31342C15.7832 0.472332 14.6097 -0.000117191 13.3861 2.18046e-08C12.1626 0.000117234 10.9892 0.472792 10.1241 1.31404L1.90318 9.30543L1.88518 9.32168C-0.628394 11.7655 -0.628394 15.7255 1.88518 18.1681C4.39876 20.6106 8.47192 20.6106 10.9855 18.1681L11.0022 18.1506L11.0035 18.1518L16.6157 12.6967L15.3106 11.4292L9.69849 16.8831L9.68178 16.8993C8.82052 17.735 7.65342 18.2044 6.43662 18.2044C5.21982 18.2044 4.05273 17.735 3.19147 16.8993C2.76456 16.4834 2.42631 15.9896 2.19609 15.4462C1.96587 14.9029 1.84823 14.3207 1.8499 13.7331C1.85157 13.1455 1.97253 12.564 2.20583 12.0219C2.43914 11.4798 2.7802 10.9879 3.20947 10.5742L3.20819 10.573L11.4304 2.58156C12.5091 1.53154 14.2654 1.53154 15.3454 2.58156C16.4254 3.63158 16.4241 5.33786 15.3454 6.38663L7.51534 13.998C7.34011 14.1547 7.10938 14.2395 6.87135 14.2348C6.63331 14.23 6.40638 14.136 6.23794 13.9724C6.06951 13.8088 5.9726 13.5883 5.96745 13.3568C5.96231 13.1254 6.04933 12.901 6.21034 12.7305L12.7354 6.38663L12.7341 6.38788Z" fill="#B5B7BD"/>
</svg>
