<svg width="24" height="20" viewBox="0 0 24 20" fill="none" xmlns="http://www.w3.org/2000/svg">
<path d="M10.0009 3.58581H23.0009C23.2662 3.58581 23.5205 3.48045 23.7081 3.29292C23.8956 3.10538 24.0009 2.85103 24.0009 2.58581C24.0009 2.3206 23.8956 2.06624 23.7081 1.87871C23.5205 1.69117 23.2662 1.58582 23.0009 1.58582H10.0009C9.73573 1.58582 9.48138 1.69117 9.29384 1.87871C9.1063 2.06624 9.00095 2.3206 9.00095 2.58581C9.00095 2.85103 9.1063 3.10538 9.29384 3.29292C9.48138 3.48045 9.73573 3.58581 10.0009 3.58581Z" fill="#070C20"/>
<path d="M23.0009 8.58521H10.0009C9.73573 8.58521 9.48138 8.69056 9.29384 8.8781C9.1063 9.06564 9.00095 9.31999 9.00095 9.58521C9.00095 9.85043 9.1063 10.1048 9.29384 10.2923C9.48138 10.4799 9.73573 10.5852 10.0009 10.5852H23.0009C23.2662 10.5852 23.5205 10.4799 23.7081 10.2923C23.8956 10.1048 24.0009 9.85043 24.0009 9.58521C24.0009 9.31999 23.8956 9.06564 23.7081 8.8781C23.5205 8.69056 23.2662 8.58521 23.0009 8.58521Z" fill="#070C20"/>
<path d="M23.0009 15.5855H10.0009C9.73573 15.5855 9.48138 15.6909 9.29384 15.8784C9.1063 16.0659 9.00095 16.3203 9.00095 16.5855C9.00095 16.8507 9.1063 17.1051 9.29384 17.2926C9.48138 17.4802 9.73573 17.5855 10.0009 17.5855H23.0009C23.2662 17.5855 23.5205 17.4802 23.7081 17.2926C23.8956 17.1051 24.0009 16.8507 24.0009 16.5855C24.0009 16.3203 23.8956 16.0659 23.7081 15.8784C23.5205 15.6909 23.2662 15.5855 23.0009 15.5855Z" fill="#070C20"/>
<path d="M6.08789 3.58579C6.18683 3.58577 6.28354 3.55639 6.36577 3.50139C6.44801 3.44638 6.51208 3.36822 6.54987 3.27679C6.58766 3.18535 6.59748 3.08477 6.57808 2.98775C6.55868 2.89074 6.51094 2.80166 6.4409 2.73179L4.0009 0.292786C3.81337 0.105315 3.55906 0 3.29389 0C3.02873 0 2.77442 0.105315 2.58689 0.292786L0.147895 2.73179C0.0778485 2.80166 0.0301048 2.89074 0.0107063 2.98775C-0.0086922 3.08477 0.00112665 3.18535 0.0389201 3.27679C0.0767136 3.36822 0.140783 3.44638 0.223018 3.50139C0.305254 3.55639 0.401959 3.58577 0.500895 3.58579H2.29489V15.5858H0.500895C0.401874 15.5856 0.305031 15.6148 0.222642 15.6698C0.140252 15.7247 0.076028 15.8028 0.0381105 15.8943C0.000192974 15.9858 -0.00971013 16.0865 0.00965666 16.1836C0.0290234 16.2807 0.0767879 16.3699 0.146895 16.4398L2.58689 18.8788C2.77442 19.0663 3.02873 19.1716 3.29389 19.1716C3.55906 19.1716 3.81337 19.0663 4.0009 18.8788L6.4409 16.4398C6.51094 16.3699 6.55868 16.2808 6.57808 16.1838C6.59748 16.0868 6.58766 15.9862 6.54987 15.8948C6.51208 15.8034 6.44801 15.7252 6.36577 15.6702C6.28354 15.6152 6.18683 15.5858 6.08789 15.5858H4.2949V3.58579H6.08789Z" fill="#070C20"/>
</svg>
