<svg width="21" height="20" viewBox="0 0 21 20" fill="none" xmlns="http://www.w3.org/2000/svg">
<path d="M2.4579 8.03444C1.68109 7.66453 1.77522 6.58133 2.60531 6.33807L17.8246 1.8782C18.5633 1.66175 19.2551 2.32066 19.0279 3.02414L14.345 17.5187C14.0896 18.3093 12.9522 18.3989 12.5638 17.6591L9.33869 11.516C9.24554 11.3386 9.09447 11.1947 8.90816 11.106L2.4579 8.03444Z" fill="#070C20"/>
<path fill-rule="evenodd" clip-rule="evenodd" d="M12.5638 17.6591C12.9522 18.3989 14.0896 18.3093 14.345 17.5187L19.0279 3.02414C19.2551 2.32066 18.5633 1.66175 17.8246 1.8782L2.60531 6.33807C1.77522 6.58133 1.68109 7.66453 2.4579 8.03444L8.90816 11.106C9.09447 11.1947 9.24554 11.3386 9.33869 11.516L12.5638 17.6591ZM2.03908 4.58548L17.2584 0.125608C19.4743 -0.523753 21.5499 1.45299 20.8681 3.56342L16.1852 18.058C15.419 20.4297 12.0069 20.6987 10.8417 18.4792L7.76008 12.6094L1.59684 9.67457C-0.73359 8.56484 -0.451211 5.31524 2.03908 4.58548Z" fill="#ECECEC"/>
<path fill-rule="evenodd" clip-rule="evenodd" d="M14.616 6.08027C14.992 6.43833 14.992 7.01884 14.616 7.3769L9.95064 11.8201C9.57468 12.1781 8.96514 12.1781 8.58919 11.8201C8.21323 11.462 8.21323 10.8815 8.58919 10.5235L13.2545 6.08027C13.6305 5.72222 14.24 5.72222 14.616 6.08027Z" fill="#ECECEC"/>
</svg>
