<svg width="24" height="16" viewBox="0 0 24 16" fill="none" xmlns="http://www.w3.org/2000/svg">
<path d="M0.999885 4.75073H3.73561C4.27556 6.73737 6.32375 7.91016 8.31039 7.37022C9.58634 7.02342 10.5831 6.02668 10.9299 4.75073H22.9977C23.5499 4.75073 23.9976 4.30307 23.9976 3.75084C23.9976 3.19862 23.5499 2.75096 22.9977 2.75096H10.9299C10.3899 0.764267 8.34175 -0.408523 6.3551 0.131424C5.07915 0.478217 4.08241 1.47496 3.73561 2.75091H0.999885C0.447659 2.75091 0 3.19857 0 3.7508C0 4.30302 0.447659 4.75073 0.999885 4.75073Z" fill="#070C20"/>
<path d="M22.9977 11.0004H20.262C19.7231 9.01407 17.676 7.84062 15.6897 8.37944C14.4127 8.72586 13.4151 9.7234 13.0687 11.0004H0.999885C0.447659 11.0004 0 11.4481 0 12.0003C0 12.5525 0.447659 13.0002 0.999885 13.0002H13.0687C13.6075 14.9866 15.6546 16.16 17.641 15.6212C18.9179 15.2748 19.9155 14.2772 20.262 13.0002H22.9977C23.5499 13.0002 23.9976 12.5525 23.9976 12.0003C23.9976 11.4481 23.5499 11.0004 22.9977 11.0004Z" fill="#070C20"/>
</svg>
