<svg width="18" height="18" viewBox="0 0 18 18" fill="none" xmlns="http://www.w3.org/2000/svg">
<path d="M2.81773e-05 8.98944C-0.00762663 10.9127 1.54535 12.4781 3.46871 12.4857C4.35449 12.4892 5.20835 12.1551 5.85644 11.5513L11.0462 13.8944C11.0101 14.0885 10.9903 14.2851 10.987 14.4825C10.9809 16.419 12.5458 17.9938 14.4824 18C16.419 18.0061 17.9938 16.4412 18 14.5046C18.0061 12.5681 16.4412 10.9933 14.5046 10.9871C13.3475 10.9835 12.2632 11.5508 11.6065 12.5034L6.73064 10.3018C7.07696 9.46557 7.0783 8.52626 6.73439 7.68902L11.6035 5.47623C12.6999 7.06197 14.8743 7.45861 16.4601 6.36221C18.0458 5.2658 18.4424 3.09153 17.346 1.50578C16.2496 -0.0799575 14.0752 -0.476595 12.4895 0.619811C11.5451 1.27277 10.9822 2.34832 10.984 3.49645C10.9871 3.69407 11.0072 3.89102 11.0439 4.08523L5.86768 6.43731C4.46527 5.12047 2.26086 5.18981 0.943992 6.5922C0.334522 7.2413 -0.00327252 8.09907 2.81773e-05 8.98944Z" fill="#070C20"/>
</svg>
