<svg width="14" height="18" viewBox="0 0 14 18" fill="none" xmlns="http://www.w3.org/2000/svg">
<path d="M6.71455 8.95527C8.81849 8.95527 10.5241 7.17443 10.5241 4.97764C10.5241 2.78085 8.81849 1 6.71455 1C4.61061 1 2.90503 2.78085 2.90503 4.97764C2.90503 7.17443 4.61061 8.95527 6.71455 8.95527Z" fill="#B5B7BD"/>
<path d="M6.71429 11.7728C3.55837 11.7728 1 13.5536 1 15.7504C1 17.9472 3.55837 16.5791 6.71429 16.5791C9.8702 16.5791 12.4286 17.9472 12.4286 15.7504C12.4286 13.5536 9.8702 11.7728 6.71429 11.7728Z" fill="#B5B7BD"/>
<path d="M6.71455 8.95527C8.81849 8.95527 10.5241 7.17443 10.5241 4.97764C10.5241 2.78085 8.81849 1 6.71455 1C4.61061 1 2.90503 2.78085 2.90503 4.97764C2.90503 7.17443 4.61061 8.95527 6.71455 8.95527Z" stroke="#B5B7BD" stroke-width="2" stroke-linecap="round" stroke-linejoin="round"/>
<path d="M6.71429 11.7728C3.55837 11.7728 1 13.5536 1 15.7504C1 17.9472 3.55837 16.5791 6.71429 16.5791C9.8702 16.5791 12.4286 17.9472 12.4286 15.7504C12.4286 13.5536 9.8702 11.7728 6.71429 11.7728Z" stroke="#B5B7BD" stroke-width="2" stroke-linecap="round" stroke-linejoin="round"/>
</svg>
