<svg width="18" height="18" viewBox="0 0 18 18" fill="none" xmlns="http://www.w3.org/2000/svg">
<path d="M4.64593 0H1.89474C0.848303 0 0 0.848303 0 1.89474C0 10.7894 7.21057 18 16.1053 18C17.1517 18 18 17.1517 18 16.1053V13.3541C18 12.5363 17.5021 11.8008 16.7428 11.4971L14.1071 10.4428C13.4251 10.17 12.6483 10.2931 12.084 10.7634L11.4031 11.3307C10.6084 11.993 9.43996 11.94 8.70852 11.2085L6.79148 9.29148C6.06004 8.56005 6.00704 7.39155 6.66925 6.5969L7.23664 5.91603C7.70693 5.35169 7.82998 4.57495 7.55715 3.89288L6.50289 1.25722C6.19916 0.497902 5.46374 0 4.64593 0Z" fill="white"/>
</svg>
