<svg width="69" height="69" viewBox="0 0 69 69" fill="none" xmlns="http://www.w3.org/2000/svg">
<circle cx="34.5" cy="34.5" r="34.5" fill="#ECECEC"/>
<path d="M42.0881 26.912H26.9119C25.4749 26.9138 24.0973 27.4853 23.0812 28.5014C22.0651 29.5175 21.4935 30.8951 21.4918 32.3321V42.0883C21.4935 43.5252 22.0651 44.9028 23.0812 45.9189C24.0973 46.935 25.4749 47.5066 26.9119 47.5083H42.0881C43.5251 47.5066 44.9027 46.935 45.9188 45.9189C46.9349 44.9028 47.5065 43.5252 47.5082 42.0883V32.3321C47.5065 30.8951 46.9349 29.5175 45.9188 28.5014C44.9027 27.4853 43.5251 26.9138 42.0881 26.912V26.912ZM34.5 43.1723C33.2136 43.1723 31.9561 42.7908 30.8865 42.0761C29.8169 41.3615 28.9833 40.3457 28.491 39.1572C27.9987 37.9687 27.8699 36.661 28.1209 35.3993C28.3718 34.1376 28.9913 32.9787 29.9009 32.0691C30.8105 31.1595 31.9694 30.54 33.2311 30.2891C34.4928 30.0381 35.8005 30.1669 36.989 30.6592C38.1775 31.1515 39.1933 31.9851 39.908 33.0547C40.6226 34.1243 41.0041 35.3818 41.0041 36.6682C41.0024 38.3926 40.3166 40.046 39.0972 41.2654C37.8778 42.4847 36.2245 43.1706 34.5 43.1723V43.1723Z" fill="#B5B7BD"/>
<path d="M34.5 41.0042C36.8947 41.0042 38.8361 39.0629 38.8361 36.6682C38.8361 34.2734 36.8947 32.3321 34.5 32.3321C32.1053 32.3321 30.1639 34.2734 30.1639 36.6682C30.1639 39.0629 32.1053 41.0042 34.5 41.0042Z" fill="#B5B7BD"/>
<path d="M40.6999 24.744L39.1682 22.7581C38.863 22.3655 38.4726 22.0474 38.0263 21.828C37.5801 21.6087 37.0898 21.4937 36.5925 21.4919H32.4039C31.9066 21.4937 31.4163 21.6087 30.9701 21.828C30.5239 22.0474 30.1334 22.3655 29.8283 22.7581L28.2965 24.744H40.6999Z" fill="#B5B7BD"/>
</svg>
