<svg width="14" height="10" viewBox="0 0 14 10" fill="none" xmlns="http://www.w3.org/2000/svg">
<path d="M13.8959 4.545C13.3837 3.47833 11.3752 0 7.0001 0C2.62499 0 0.616524 3.47833 0.104344 4.545C0.0355898 4.68795 0 4.84333 0 5.00056C0 5.15778 0.0355898 5.31317 0.104344 5.45611C0.616524 6.52167 2.62499 10 7.0001 10C11.3752 10 13.3837 6.52167 13.8959 5.455C13.9645 5.31222 14 5.15703 14 5C14 4.84297 13.9645 4.68779 13.8959 4.545ZM7.0001 8.33333C6.30785 8.33333 5.63115 8.13784 5.05556 7.77157C4.47997 7.40529 4.03136 6.8847 3.76644 6.27561C3.50153 5.66652 3.43222 4.9963 3.56727 4.3497C3.70232 3.7031 4.03567 3.10915 4.52517 2.64298C5.01466 2.1768 5.63832 1.85933 6.31727 1.73072C6.99622 1.6021 7.69997 1.66811 8.33953 1.9204C8.97909 2.17269 9.52573 2.59994 9.91032 3.1481C10.2949 3.69626 10.5002 4.34073 10.5002 5C10.4993 5.88378 10.1302 6.73112 9.47402 7.35605C8.81783 7.98098 7.9281 8.33245 7.0001 8.33333Z" fill="#070C20"/>
<path d="M7.00017 7.22194C8.28887 7.22194 9.33356 6.22702 9.33356 4.99972C9.33356 3.77243 8.28887 2.77751 7.00017 2.77751C5.71148 2.77751 4.66679 3.77243 4.66679 4.99972C4.66679 6.22702 5.71148 7.22194 7.00017 7.22194Z" fill="#070C20"/>
</svg>
